<?xml version="1.0" encoding="UTF-8" standalone="no"?>
<svg
   xmlns:dc="http://purl.org/dc/elements/1.1/"
   xmlns:cc="http://creativecommons.org/ns#"
   xmlns:rdf="http://www.w3.org/1999/02/22-rdf-syntax-ns#"
   xmlns:svg="http://www.w3.org/2000/svg"
   xmlns="http://www.w3.org/2000/svg"
   xmlns:sodipodi="http://sodipodi.sourceforge.net/DTD/sodipodi-0.dtd"
   xmlns:inkscape="http://www.inkscape.org/namespaces/inkscape"
   width="38.041016"
   height="38.041016"
   viewBox="0 0 38.041016 38.041016"
   version="1.1"
   id="svg6"
   sodipodi:docname="BusLab-favicon.svg"
   inkscape:version="1.0.2-2 (e86c870879, 2021-01-15)">
  <metadata
     id="metadata12">
    <rdf:RDF>
      <cc:Work
         rdf:about="">
        <dc:format>image/svg+xml</dc:format>
        <dc:type
           rdf:resource="http://purl.org/dc/dcmitype/StillImage" />
        <dc:title></dc:title>
      </cc:Work>
    </rdf:RDF>
  </metadata>
  <defs
     id="defs10" />
  <sodipodi:namedview
     pagecolor="#ffffff"
     bordercolor="#666666"
     borderopacity="1"
     objecttolerance="10"
     gridtolerance="10"
     guidetolerance="10"
     inkscape:pageopacity="0"
     inkscape:pageshadow="2"
     inkscape:window-width="1400"
     inkscape:window-height="971"
     id="namedview8"
     showgrid="false"
     inkscape:zoom="4.5266537"
     inkscape:cx="12.441527"
     inkscape:cy="24.050408"
     inkscape:window-x="-9"
     inkscape:window-y="-9"
     inkscape:window-maximized="1"
     inkscape:current-layer="text4" />
  <g
     aria-label="BusLab"
     transform="translate(-32.509525,27.620508)"
     id="text4"
     style="font-size:25px;font-family:SuiGenerisRg-Regular, 'Sui Generis';fill:#141c5c">
    <circle
       style="fill:#f2f2f2;stroke:#141c5c;stroke-width:4;stroke-miterlimit:4;stroke-dasharray:none;stroke-opacity:1;paint-order:markers fill stroke"
       id="path27"
       cx="51.530033"
       cy="8.6000004"
       r="17.020508"
       transform="scale(1,-1)" />
    <path
       d="m 42.055035,0 v -17.2 h 13.7 q 1.35,0 2.275,0.225 0.925,0.2 1.5,0.7 0.575,0.5 0.825,1.35 0.25,0.85 0.25,2.125 v 1.075 q 0,2.45 -2.275,2.825 1.125,0.15 1.9,0.9 0.775,0.75 0.775,2.3 v 1.125 q 0,1.325 -0.3,2.225 -0.3,0.875 -0.95,1.4 -0.625,0.525 -1.625,0.75 -1,0.2 -2.375,0.2 z m 15.6,-5.6 q 0,-0.95 -0.375,-1.325 -0.35,-0.4 -1.4,-0.4 h -10.45 v 3.95 h 10.325 q 1.125,0 1.5,-0.35 0.4,-0.375 0.4,-1.25 z m -0.4,-6.725 q 0,-0.825 -0.35,-1.15 -0.325,-0.325 -1.15,-0.325 h -10.325 v 3.725 h 10.35 q 0.8,0 1.125,-0.35 0.35,-0.375 0.35,-1.25 z"
       id="path14" />
  </g>
</svg>
