<svg xmlns="http://www.w3.org/2000/svg" viewBox="0 0 569.042 137.982">
  <path d="M218.757 118.195c.113 6.75-.114 13.493-.786 19.787h19.56c1.911-27.875-4.382-64.974-8.095-79.026H214.71c-11.129 14.052-37.1 51.151-50.026 79.026h19.896c2.698-6.294 6.07-13.037 9.667-19.787zm-19.783-8.88c8.88-15.395 17.199-27.989 17.199-27.989s1.688 12.594 2.247 27.988zm102.518 28.663h12.48l20.796-79.022h-17.645l-12.367 46.759-22.597-46.76H269.68l-20.912 79.023h17.54l12.48-46.645zm76.332-19.783c.22 6.75-.113 13.493-.676 19.787h19.45c1.795-27.875-4.498-64.974-8.095-79.026h-14.725c-11.018 14.052-36.982 51.151-49.912 79.026h19.787c2.693-6.294 6.18-13.037 9.78-19.787zm-19.783-8.88c8.881-15.395 17.312-27.989 17.312-27.989s1.569 12.594 2.245 27.988zm72.952 28.663l18.661-70.258h19.787l2.25-8.764h-58.793l-2.25 8.764h19.9l-18.439 70.258zm51.155-8.65l7.189-27.32h23.043l2.368-8.88H491.81l6.637-25.408h26.976l2.244-8.764h-45.97l-20.805 79.022h47.218l2.244-8.65zm59.349 0l18.438-70.372h-18.887l-20.906 79.022h46.65l2.25-8.65z" fill="#2f9c5c"/>
  <path d="M39.906 58.053c22.03 0 40.019 17.989 40.019 40.02 0 22.03-17.988 39.905-40.02 39.905C17.873 137.978 0 120.103 0 98.073c0-22.031 17.872-40.02 39.906-40.02z" fill="#295ca7"/>
  <path d="M153.443 137.646c22.82-53.4 17.762-106.682-15.397-128.266C106.568-11.08 59.243 3.086 20.909 40.63c25.067-19.337 53.508-24.621 70.93-10.566 22.148 17.759 17.313 60.369-10.792 95.1a158.82 158.82 0 01-11.691 12.707z" fill="#fadf3c"/>
</svg>
