<svg xmlns="http://www.w3.org/2000/svg" width="614" height="929" viewBox="0 0 614 929"><g transform="translate(-932 -175)"><g transform="translate(932 175)" fill="none" stroke="#f5f5f5" stroke-width="5"><path d="M0,0H536a50,50,0,0,1,50,50V557a0,0,0,0,1,0,0H0a0,0,0,0,1,0,0V0A0,0,0,0,1,0,0Z" stroke="none"/><path d="M5,2.5H536A47.5,47.5,0,0,1,583.5,50V552a2.5,2.5,0,0,1-2.5,2.5H5A2.5,2.5,0,0,1,2.5,552V5A2.5,2.5,0,0,1,5,2.5Z" fill="none"/></g><path d="M0,0H496a90,90,0,0,1,90,90V901a0,0,0,0,1,0,0H90A90,90,0,0,1,0,811V0A0,0,0,0,1,0,0Z" transform="translate(960 203)" fill="#e4e4e4" opacity="0.39"/></g></svg>