<?xml version="1.0" encoding="UTF-8"?>
<svg version="1.1" viewBox="0 0 109 30" xmlns="http://www.w3.org/2000/svg">
 <g transform="translate(0 23)" fill="#141c5c" aria-label="BusLab">
  <path d="m1.5 0v-17.2h13.7q1.35 0 2.275 0.225 0.925 0.2 1.5 0.7t0.825 1.35 0.25 2.125v1.075q0 2.45-2.275 2.825 1.125 0.15 1.9 0.9t0.775 2.3v1.125q0 1.325-0.3 2.225-0.3 0.875-0.95 1.4-0.625 0.525-1.625 0.75-1 0.2-2.375 0.2zm15.6-5.6q0-0.95-0.375-1.325-0.35-0.4-1.4-0.4h-10.45v3.95h10.325q1.125 0 1.5-0.35 0.4-0.375 0.4-1.25zm-0.4-6.725q0-0.825-0.35-1.15-0.325-0.325-1.15-0.325h-10.325v3.725h10.35q0.8 0 1.125-0.35 0.35-0.375 0.35-1.25z"/>
  <path d="m28.25 0q-1.475 0-2.475-0.325-0.975-0.325-1.575-1t-0.875-1.675q-0.25-1.025-0.25-2.4v-8.1h3.325v8.525q0 1.05 0.4 1.575 0.425 0.5 1.45 0.5h3.95q0.725 0 1.125-0.4 0.425-0.4 0.55-0.975v-9.225h3.35v13.5q-0.4 0-0.8-0.125-0.375-0.125-0.7-0.375-0.3-0.275-0.525-0.675-0.2-0.4-0.25-0.975-0.35 1.1-1.3 1.625-0.925 0.525-2.675 0.525z"/>
  <path d="m39.7 0q0.125-0.725 0.225-1.45 0.125-0.725 0.25-1.45h9.35q0.7 0 1.025-0.275 0.35-0.275 0.35-1.15t-0.35-1.15q-0.325-0.275-1.025-0.275h-4.95q-2.325 0-3.45-0.7-1.1-0.7-1.1-2.425v-1.45q0-0.925 0.275-1.55 0.3-0.625 0.875-0.975t1.475-0.5 2.1-0.15h9.2l-0.475 2.925h-8.575q-0.7 0-1.05 0.275-0.325 0.275-0.325 1.125 0 0.825 0.325 1.125 0.35 0.275 1.05 0.275h4.95q2.3 0 3.425 0.725 1.125 0.7 1.125 2.4v1.5q0 0.95-0.3 1.55-0.275 0.6-0.85 0.975-0.575 0.35-1.475 0.5-0.9 0.125-2.1 0.125z"/>
  <path d="m56.85 0v-17.2h3.375v13.8h12.95v3.4z"/>
  <path d="m79.15 0q-2.375 0-3.375-0.8-0.975-0.8-0.975-2.5v-1.475q0-1.725 1-2.45 1.025-0.75 3.3-0.75h4.65q1 0 1.525 0.175 0.525 0.15 0.9 0.35v-1.575q0-0.95-0.575-1.25t-1.95-0.3h-7.8l0.325-2.925h7.9q1.65 0 2.7 0.35 1.05 0.325 1.625 0.9 0.6 0.575 0.825 1.35t0.225 1.65v9.25q-0.725 0-1.4-0.45-0.675-0.475-0.875-1.675-0.3 0.925-1.15 1.525t-2.35 0.6zm7.025-5.525q-0.425-0.175-0.975-0.275t-1.475-0.1h-4.075q-0.8 0-1.15 0.325-0.35 0.3-0.35 1.175 0 0.85 0.35 1.175t1.125 0.325h4.075q0.9 0 1.6-0.3 0.725-0.3 0.875-1.15z"/>
  <path d="m98.7 0q-1.75 0-2.725-0.525-0.95-0.525-1.275-1.625-0.075 0.575-0.3 0.975-0.2 0.4-0.525 0.675-0.3 0.25-0.675 0.375t-0.775 0.125v-17.65l3.325-1.125v7.225q0.55-1.075 1.275-1.5 0.75-0.45 1.95-0.45h2.675q1.475 0 2.475 0.325t1.6 1q0.625 0.675 0.875 1.7 0.275 1 0.275 2.375v2.7q0 1.375-0.275 2.4-0.25 1-0.875 1.675-0.6 0.675-1.6 1t-2.475 0.325zm4.825-8q0-1.35-0.375-1.975-0.35-0.625-1.5-0.625h-3.925q-0.875 0-1.35 0.3-0.45 0.3-0.625 1v4.75q0.15 0.7 0.625 1.175t1.35 0.475h3.925q0.525 0 0.875-0.1 0.375-0.125 0.575-0.425 0.225-0.3 0.325-0.8t0.1-1.275z"/>
 </g>
</svg>
