<svg xmlns="http://www.w3.org/2000/svg" width="28" height="26.6" viewBox="0 0 28 26.6"><path d="M14,1.5C6.28,1.5,0,7.152,0,14.1a11.648,11.648,0,0,0,2.225,6.815C1.949,23.966,1.21,26.231.137,27.3a.467.467,0,0,0,.33.8.438.438,0,0,0,.065,0A24.93,24.93,0,0,0,8.287,25.6,15.19,15.19,0,0,0,14,26.7c7.72,0,14-5.652,14-12.6S21.72,1.5,14,1.5ZM7.467,15.967A1.867,1.867,0,1,1,9.333,14.1,1.869,1.869,0,0,1,7.467,15.967Zm6.533,0A1.867,1.867,0,1,1,15.867,14.1,1.869,1.869,0,0,1,14,15.967Zm6.533,0A1.867,1.867,0,1,1,22.4,14.1,1.869,1.869,0,0,1,20.533,15.967Z" transform="translate(0 -1.5)" fill="#141c5c"/></svg>