<svg xmlns="http://www.w3.org/2000/svg" width="17.414" height="17.498" viewBox="0 0 17.414 17.498"><path d="M15.127,2.543A8.673,8.673,0,0,0,1.48,13.005L.25,17.5l4.6-1.206A8.662,8.662,0,0,0,8.99,17.348h0a8.675,8.675,0,0,0,6.133-14.8ZM8.993,15.883h0a7.2,7.2,0,0,1-3.668-1l-.263-.156-2.728.716.728-2.659-.171-.273a7.207,7.207,0,1,1,6.105,3.377Zm3.953-5.4c-.217-.109-1.282-.632-1.48-.7s-.343-.108-.487.109-.56.7-.686.849-.253.163-.469.054A5.918,5.918,0,0,1,8.081,9.718a6.535,6.535,0,0,1-1.205-1.5c-.126-.217,0-.323.1-.442a6.129,6.129,0,0,0,.542-.741.4.4,0,0,0-.018-.38c-.054-.108-.487-1.175-.668-1.609s-.354-.365-.488-.372-.271-.008-.415-.008a.8.8,0,0,0-.578.271,2.43,2.43,0,0,0-.758,1.807,4.215,4.215,0,0,0,.885,2.241,9.657,9.657,0,0,0,3.7,3.271,12.4,12.4,0,0,0,1.235.456,2.97,2.97,0,0,0,1.365.086,2.232,2.232,0,0,0,1.462-1.03,1.81,1.81,0,0,0,.126-1.03c-.054-.09-.2-.145-.415-.253Zm0,0" transform="translate(-0.25)" fill="#141c5c" fill-rule="evenodd"/></svg>