<svg xmlns="http://www.w3.org/2000/svg" xmlns:xlink="http://www.w3.org/1999/xlink" width="143" height="143" viewBox="0 0 143 143"><defs><filter id="a" x="0" y="0" width="143" height="143" filterUnits="userSpaceOnUse"><feOffset dy="10" input="SourceAlpha"/><feGaussianBlur stdDeviation="15" result="b"/><feFlood flood-opacity="0.11"/><feComposite operator="in" in2="b"/><feComposite in="SourceGraphic"/></filter></defs><g transform="translate(-1521 -3479)"><g transform="matrix(1, 0, 0, 1, 1521, 3479)" filter="url(#a)"><rect width="53" height="53" rx="15" transform="translate(45 35)" fill="#fff"/></g><circle cx="16" cy="16" r="16" transform="translate(1577 3525)" fill="#707070" opacity="0.12"/><path d="M6.2,12.734a.826.826,0,0,1-1.169,0L.363,8.066a1.239,1.239,0,0,1,0-1.753l.584-.584a1.239,1.239,0,0,1,1.753,0L5.614,8.642,13.487.769a1.239,1.239,0,0,1,1.753,0l.584.584a1.239,1.239,0,0,1,0,1.753Zm0,0" transform="translate(1585.812 3534.522)" fill="#141c5c"/></g></svg>