<svg xmlns="http://www.w3.org/2000/svg" width="19.623" height="19.282" viewBox="0 0 19.623 19.282"><path d="M1285.257-701.071l-4.312,4.31a.857.857,0,0,0,0,1.207.856.856,0,0,0,1.209,0l4.913-4.914a.851.851,0,0,0,0-1.207l-4.913-4.914a.856.856,0,0,0-1.209,0,.857.857,0,0,0,0,1.207Zm-15.855-.854v-11.808a.854.854,0,0,0-.854-.854.854.854,0,0,0-.854.854v12.661a.854.854,0,0,0,.854.854h12.66a.854.854,0,0,0,.854-.854.854.854,0,0,0-.854-.854Z" transform="translate(-1267.695 714.586)" fill="#141c5c" fill-rule="evenodd"/></svg>