<svg xmlns="http://www.w3.org/2000/svg" width="25.978" height="25.978" viewBox="0 0 25.978 25.978"><g transform="translate(6.494 6.494)"><path d="M12.494,18.989a6.494,6.494,0,1,1,6.494-6.494A6.514,6.514,0,0,1,12.494,18.989Zm0-11.906a5.412,5.412,0,1,0,5.412,5.412A5.359,5.359,0,0,0,12.494,7.082Z" transform="translate(-6 -6)" fill="#141c5c"/></g><g transform="translate(12.448 15.154)"><path d="M12.041,16.165a.511.511,0,0,1-.541-.541V14.541a.541.541,0,0,1,1.082,0v1.082A.511.511,0,0,1,12.041,16.165Z" transform="translate(-11.5 -14)" fill="#141c5c"/></g><g transform="translate(10.716 9.742)"><path d="M12.39,15.494H10.441a.541.541,0,0,1,0-1.082H12.39a.854.854,0,0,0,.866-.866.8.8,0,0,0-.866-.866h-.541A1.94,1.94,0,0,1,9.9,10.732,1.864,1.864,0,0,1,11.957,9H13.9a.5.5,0,0,1,.433.541.511.511,0,0,1-.541.541H11.848a.854.854,0,0,0-.866.866.8.8,0,0,0,.866.866h.541a1.94,1.94,0,0,1,1.948,1.948,1.768,1.768,0,0,1-1.948,1.732Z" transform="translate(-9.9 -9)" fill="#141c5c"/></g><g transform="translate(12.448 8.659)"><path d="M12.041,10.165a.511.511,0,0,1-.541-.541V8.541a.541.541,0,1,1,1.082,0V9.624A.511.511,0,0,1,12.041,10.165Z" transform="translate(-11.5 -8)" fill="#141c5c"/></g><g transform="translate(10.824)"><path d="M12.165,4.33A2.165,2.165,0,1,1,14.33,2.165,2.171,2.171,0,0,1,12.165,4.33Zm0-3.247a1.023,1.023,0,0,0-1.082,1.082,1.023,1.023,0,0,0,1.082,1.082,1.023,1.023,0,0,0,1.082-1.082A1.023,1.023,0,0,0,12.165,1.082Z" transform="translate(-10)" fill="#141c5c"/></g><g transform="translate(12.448 3.247)"><path d="M12.041,7.33a.511.511,0,0,1-.541-.541V3.541a.541.541,0,0,1,1.082,0V6.788A.511.511,0,0,1,12.041,7.33Z" transform="translate(-11.5 -3)" fill="#141c5c"/></g><g transform="translate(18.509 3.139)"><path d="M19.265,7.23a2.137,2.137,0,0,1-1.515-.649,2.093,2.093,0,0,1,0-3.031,2.093,2.093,0,0,1,3.031,0,2.093,2.093,0,0,1,0,3.031A2.137,2.137,0,0,1,19.265,7.23Zm0-3.247a.983.983,0,0,0-.758.325,1.072,1.072,0,1,0,1.515,0,1.169,1.169,0,0,0-.758-.325Z" transform="translate(-17.1 -2.9)" fill="#141c5c"/></g><g transform="translate(16.615 6.007)"><path d="M15.945,8.851a.651.651,0,0,1-.433-.108.523.523,0,0,1,0-.758l2.273-2.273a.536.536,0,1,1,.758.758L16.27,8.743a.4.4,0,0,1-.325.108Z" transform="translate(-15.35 -5.55)" fill="#141c5c"/></g><g transform="translate(21.648 10.824)"><path d="M22.165,14.33a2.165,2.165,0,1,1,2.165-2.165A2.171,2.171,0,0,1,22.165,14.33Zm0-3.247a1.023,1.023,0,0,0-1.082,1.082,1.082,1.082,0,1,0,2.165,0A1.023,1.023,0,0,0,22.165,11.082Z" transform="translate(-20 -10)" fill="#141c5c"/></g><g transform="translate(18.401 12.448)"><path d="M20.788,12.582H17.541a.541.541,0,1,1,0-1.082h3.247a.541.541,0,1,1,0,1.082Z" transform="translate(-17 -11.5)" fill="#141c5c"/></g><g transform="translate(18.509 18.509)"><path d="M19.265,21.43a2.137,2.137,0,0,1-1.515-.649,2.143,2.143,0,1,1,3.031,0A2.137,2.137,0,0,1,19.265,21.43Zm-.758-1.407a1.072,1.072,0,1,0,0-1.515A1.046,1.046,0,0,0,18.507,20.023Z" transform="translate(-17.1 -17.1)" fill="#141c5c"/></g><g transform="translate(16.615 16.723)"><path d="M18.218,18.751a.651.651,0,0,1-.433-.108L15.512,16.37a.536.536,0,1,1,.758-.758l2.273,2.273a.523.523,0,0,1,0,.758c0,.108-.216.108-.325.108Z" transform="translate(-15.35 -15.45)" fill="#141c5c"/></g><g transform="translate(10.824 21.648)"><path d="M12.165,24.33a2.165,2.165,0,1,1,2.165-2.165A2.171,2.171,0,0,1,12.165,24.33Zm0-3.247a1.082,1.082,0,1,0,0,2.165,1.082,1.082,0,1,0,0-2.165Z" transform="translate(-10 -20)" fill="#141c5c"/></g><g transform="translate(12.448 18.401)"><path d="M12.041,21.33a.511.511,0,0,1-.541-.541V17.541a.541.541,0,1,1,1.082,0v3.247A.511.511,0,0,1,12.041,21.33Z" transform="translate(-11.5 -17)" fill="#141c5c"/></g><g transform="translate(3.139 18.509)"><path d="M5.065,21.43a2.137,2.137,0,0,1-1.515-.649,2.093,2.093,0,0,1,0-3.031,2.093,2.093,0,0,1,3.031,0,2.093,2.093,0,0,1,0,3.031A1.965,1.965,0,0,1,5.065,21.43Zm-.758-2.923a1.072,1.072,0,0,0,1.515,1.515,1.072,1.072,0,0,0-1.515-1.515Z" transform="translate(-2.9 -17.1)" fill="#141c5c"/></g><g transform="translate(5.899 16.723)"><path d="M6.045,18.751a.651.651,0,0,1-.433-.108.523.523,0,0,1,0-.758l2.273-2.273a.536.536,0,1,1,.758.758L6.37,18.643a.4.4,0,0,1-.325.108Z" transform="translate(-5.45 -15.45)" fill="#141c5c"/></g><g transform="translate(0 10.824)"><path d="M2.165,14.33A2.165,2.165,0,1,1,4.33,12.165,2.171,2.171,0,0,1,2.165,14.33Zm0-3.247a1.023,1.023,0,0,0-1.082,1.082,1.023,1.023,0,0,0,1.082,1.082,1.023,1.023,0,0,0,1.082-1.082A1.023,1.023,0,0,0,2.165,11.082Z" transform="translate(0 -10)" fill="#141c5c"/></g><g transform="translate(3.247 12.448)"><path d="M6.788,12.582H3.541a.541.541,0,0,1,0-1.082H6.788a.541.541,0,1,1,0,1.082Z" transform="translate(-3 -11.5)" fill="#141c5c"/></g><g transform="translate(3.139 3.139)"><path d="M5.065,7.23A2.137,2.137,0,0,1,3.549,6.58a2.093,2.093,0,0,1,0-3.031,2.093,2.093,0,0,1,3.031,0,2.093,2.093,0,0,1,0,3.031A1.965,1.965,0,0,1,5.065,7.23Zm0-3.247a1.169,1.169,0,0,0-.758.325A1.072,1.072,0,0,0,5.823,5.823a1.046,1.046,0,0,0,0-1.515.983.983,0,0,0-.758-.325Z" transform="translate(-2.9 -2.9)" fill="#141c5c"/></g><g transform="translate(5.899 5.899)"><path d="M8.318,8.86a.651.651,0,0,1-.433-.108L5.612,6.37a.536.536,0,0,1,.758-.758L8.643,7.885a.523.523,0,0,1,0,.758c0,.216-.216.216-.325.216Z" transform="translate(-5.45 -5.45)" fill="#141c5c"/></g></svg>