<svg xmlns="http://www.w3.org/2000/svg" width="13.323" height="13.325" viewBox="0 0 13.323 13.325"><path d="M13.738,3.918a4.869,4.869,0,0,0-.31-1.617,3.413,3.413,0,0,0-1.95-1.95A4.882,4.882,0,0,0,9.861.042C9.148.008,8.922,0,7.113,0S5.077.008,4.366.039A4.871,4.871,0,0,0,2.75.349a3.251,3.251,0,0,0-1.182.771A3.281,3.281,0,0,0,.8,2.3,4.882,4.882,0,0,0,.49,3.915c-.034.713-.042.94-.042,2.749S.456,8.7.488,9.41A4.869,4.869,0,0,0,.8,11.027a3.413,3.413,0,0,0,1.95,1.95,4.882,4.882,0,0,0,1.617.31c.711.031.937.039,2.746.039s2.036-.008,2.746-.039a4.868,4.868,0,0,0,1.616-.31,3.408,3.408,0,0,0,1.95-1.95,4.885,4.885,0,0,0,.31-1.617c.031-.711.039-.937.039-2.746s0-2.036-.034-2.746Zm-1.2,5.441a3.652,3.652,0,0,1-.229,1.236,2.21,2.21,0,0,1-1.265,1.265,3.665,3.665,0,0,1-1.236.229c-.7.031-.914.039-2.692.039s-1.991-.008-2.692-.039a3.65,3.65,0,0,1-1.236-.229,2.05,2.05,0,0,1-.765-.5,2.072,2.072,0,0,1-.5-.765A3.666,3.666,0,0,1,1.7,9.361c-.031-.7-.039-.914-.039-2.692s.008-1.991.039-2.692a3.651,3.651,0,0,1,.229-1.236,2.025,2.025,0,0,1,.5-.765,2.069,2.069,0,0,1,.765-.5A3.668,3.668,0,0,1,4.426,1.25c.7-.031.914-.039,2.692-.039s1.991.008,2.692.039a3.652,3.652,0,0,1,1.236.229,2.049,2.049,0,0,1,.765.5,2.071,2.071,0,0,1,.5.765,3.667,3.667,0,0,1,.229,1.236c.031.7.039.914.039,2.692s-.008,1.986-.039,2.689Zm0,0" transform="translate(-0.449 0)" fill="#141c5c"/><path d="M128.372,124.5a3.423,3.423,0,1,0,3.423,3.423A3.424,3.424,0,0,0,128.372,124.5Zm0,5.644a2.22,2.22,0,1,1,2.22-2.22A2.221,2.221,0,0,1,128.372,130.144Zm0,0" transform="translate(-121.708 -121.259)" fill="#141c5c"/><path d="M364.048,89.4a.8.8,0,1,1-.8-.8A.8.8,0,0,1,364.048,89.4Zm0,0" transform="translate(-353.026 -86.295)" fill="#141c5c"/></svg>