<svg xmlns="http://www.w3.org/2000/svg" width="17.106" height="17.106" viewBox="0 0 17.106 17.106"><path d="M376.1-84.15l1.763,1.763a.932.932,0,0,0,1.317,0,.932.932,0,0,0,0-1.317l-1.763-1.763a.932.932,0,0,0-1.317,0A.932.932,0,0,0,376.1-84.15ZM364.466-97.1a7.259,7.259,0,0,0,0,10.261,7.259,7.259,0,0,0,10.261,0,7.259,7.259,0,0,0,0-10.261A7.259,7.259,0,0,0,364.466-97.1Zm1.317,1.317a5.4,5.4,0,0,1,7.627,0,5.4,5.4,0,0,1,0,7.627,5.4,5.4,0,0,1-7.627,0A5.4,5.4,0,0,1,365.783-95.78Z" transform="translate(-362.342 99.221)" fill="#fff" fill-rule="evenodd"/></svg>