<svg xmlns="http://www.w3.org/2000/svg" width="12.352" height="11.317" viewBox="0 0 12.352 11.317"><g transform="translate(-374.165 -230.003)"><path d="M76.136,81.369H68.777a1.518,1.518,0,0,0-2.878,0H64.75a.483.483,0,0,0,0,.966H65.9a1.518,1.518,0,0,0,2.878,0h7.359a.483.483,0,1,0,0-.966Zm-8.8,1.035a.552.552,0,1,1,.552-.552A.552.552,0,0,1,67.338,82.4Z" transform="translate(309.898 149.669)" fill="#141c5c"/><path d="M76.136,209.9H74.987a1.518,1.518,0,0,0-2.878,0H64.75a.483.483,0,0,0,0,.966h7.359a1.518,1.518,0,0,0,2.878,0h1.149a.483.483,0,1,0,0-.966Zm-2.588,1.035a.552.552,0,1,1,.552-.552A.553.553,0,0,1,73.548,210.937Z" transform="translate(309.898 25.276)" fill="#141c5c"/><path d="M76.136,338.435H70.847a1.518,1.518,0,0,0-2.878,0H64.75a.483.483,0,1,0,0,.966h3.219a1.518,1.518,0,0,0,2.878,0h5.289a.483.483,0,1,0,0-.966Zm-6.728,1.035a.552.552,0,1,1,.552-.552A.552.552,0,0,1,69.408,339.47Z" transform="translate(309.898 -99.117)" fill="#141c5c"/></g></svg>