<svg xmlns="http://www.w3.org/2000/svg" width="17.415" height="11.973" viewBox="0 0 17.415 11.973"><g transform="translate(0 -80)"><g transform="translate(11.544 82.207)"><path d="M339.392,148.764l5.871,3.711V144.9Z" transform="translate(-339.392 -144.896)" fill="#141c5c"/></g><g transform="translate(0 82.207)"><path d="M0,144.9v7.58l5.871-3.711Z" transform="translate(0 -144.896)" fill="#141c5c"/></g><g transform="translate(0.033 80)"><path d="M17.254,80H2.016a1.075,1.075,0,0,0-1.056.926l8.675,5.715,8.675-5.715A1.075,1.075,0,0,0,17.254,80Z" transform="translate(-0.96 -80)" fill="#141c5c"/></g><g transform="translate(0.035 86.732)"><path d="M11.536,277.921,10,278.935a.546.546,0,0,1-.6,0l-1.54-1.015-6.833,4.322a1.073,1.073,0,0,0,1.054.919H17.315a1.073,1.073,0,0,0,1.054-.919Z" transform="translate(-1.024 -277.92)" fill="#141c5c"/></g></g></svg>