<svg xmlns="http://www.w3.org/2000/svg" width="27.661" height="27.776" viewBox="0 0 27.661 27.776"><g transform="translate(17.36 0)"><path d="M21.25,13.888H19.166a1.35,1.35,0,0,1-1.273-1.5v-1.5a2.432,2.432,0,0,0-.81-1.62A5.131,5.131,0,0,1,20.092,0a4.889,4.889,0,0,1,3.7,1.5,4.889,4.889,0,0,1,1.5,3.7,5.267,5.267,0,0,1-1.967,4.051,2.416,2.416,0,0,0-.926,1.852v1.62a1.09,1.09,0,0,1-1.157,1.157ZM20.208,1.157a4.079,4.079,0,0,0-4.051,3.935,4.306,4.306,0,0,0,1.5,3.241,3.412,3.412,0,0,1,1.273,2.546v1.5s0,.347.116.347h2.083c.116,0,.116,0,.116-.116v-1.62a3.243,3.243,0,0,1,1.389-2.662,4.007,4.007,0,0,0,1.62-3.125A4.567,4.567,0,0,0,23.1,2.315,4.567,4.567,0,0,0,20.208,1.157Z" transform="translate(-15 0)" fill="#141c5c"/></g><g transform="translate(20.254 10.416)"><path d="M21.551,10.157H18.079a.579.579,0,1,1,0-1.157h3.472a.579.579,0,0,1,0,1.157Z" transform="translate(-17.5 -9)" fill="#141c5c"/></g><g transform="translate(0 0)"><path d="M20.254,27.776H9.837a.547.547,0,0,1-.579-.579V23.378l-2.778.81a1.468,1.468,0,0,1-.694.116A2.321,2.321,0,0,1,3.472,21.99V18.517H1.157A1.093,1.093,0,0,1,0,17.36a.884.884,0,0,1,.231-.579L2.893,12.5a4.716,4.716,0,0,0,.579-2.083A10.277,10.277,0,0,1,13.888,0a10.753,10.753,0,0,1,3.356.579.516.516,0,0,1,.347.694c-.116.231-.463.463-.694.347a9.066,9.066,0,0,0-3.009-.463,9.577,9.577,0,0,0-6.6,2.662,8.9,8.9,0,0,0-2.662,6.6,4.5,4.5,0,0,1-.81,2.662L1.157,17.36H4.051a.547.547,0,0,1,.579.579V21.99a1.093,1.093,0,0,0,1.157,1.157h.347L9.722,21.99c.231,0,.347,0,.463.116a.6.6,0,0,1,.231.463v4.051h9.259V21.411a10.2,10.2,0,0,1,1.736-5.671.6.6,0,0,0,.231-.463.6.6,0,0,1,1.042.579c-.116.116-.231.347-.347.463a8.794,8.794,0,0,0-1.62,4.977v5.787c.116.463-.116.694-.463.694Z" transform="translate(0 0)" fill="#141c5c"/></g></svg>