<svg xmlns="http://www.w3.org/2000/svg" width="64" height="64" viewBox="0 0 64 64"><g transform="translate(-928 -723)"><circle cx="32" cy="32" r="32" transform="translate(928 723)" fill="#fff" opacity="0.58"/><circle cx="23" cy="23" r="23" transform="translate(937 732)" fill="#fff"/><path d="M676.248-690.317l6.744-6.744a1.2,1.2,0,0,1,1.7,0,1.2,1.2,0,0,1,0,1.7l-7.594,7.594a1.2,1.2,0,0,1-1.7,0L667.8-695.36a1.2,1.2,0,0,1,0-1.7,1.2,1.2,0,0,1,1.7,0Zm-1.2-22.929V-697.8a1.2,1.2,0,0,0,1.2,1.2,1.2,1.2,0,0,0,1.2-1.2v-15.447a1.2,1.2,0,0,0-1.2-1.2A1.2,1.2,0,0,0,675.045-713.246Z" transform="translate(283.49 1455.8)" fill="#141c5c" fill-rule="evenodd"/></g></svg>