<svg xmlns="http://www.w3.org/2000/svg" width="27.552" height="27.552" viewBox="0 0 27.552 27.552"><g transform="translate(2.296 2.296)"><path d="M13.48,24.96A11.48,11.48,0,1,1,24.96,13.48,11.514,11.514,0,0,1,13.48,24.96Zm0-21.812A10.332,10.332,0,1,0,23.812,13.48,10.289,10.289,0,0,0,13.48,3.148Z" transform="translate(-2 -2)" fill="#141c5c"/></g><g transform="translate(13.202)"><path d="M12.074,5.74a.542.542,0,0,1-.574-.574V.574a.574.574,0,0,1,1.148,0V5.166A.542.542,0,0,1,12.074,5.74Z" transform="translate(-11.5)" fill="#141c5c"/></g><g transform="translate(13.202)"><path d="M12.074,5.74a.542.542,0,0,1-.574-.574V.574a.574.574,0,0,1,1.148,0V5.166A.542.542,0,0,1,12.074,5.74Z" transform="translate(-11.5)" fill="#141c5c"/></g><g transform="translate(21.812 13.202)"><path d="M24.166,12.648H19.574a.574.574,0,1,1,0-1.148h4.592a.574.574,0,1,1,0,1.148Z" transform="translate(-19 -11.5)" fill="#141c5c"/></g><g transform="translate(13.202 21.812)"><path d="M12.074,24.74a.542.542,0,0,1-.574-.574V19.574a.574.574,0,1,1,1.148,0v4.592A.542.542,0,0,1,12.074,24.74Z" transform="translate(-11.5 -19)" fill="#141c5c"/></g><g transform="translate(0 13.202)"><path d="M5.166,12.648H.574a.574.574,0,0,1,0-1.148H5.166a.574.574,0,0,1,0,1.148Z" transform="translate(0 -11.5)" fill="#141c5c"/></g><g transform="translate(11.48 8.036)"><path d="M12.3,11.592a2.3,2.3,0,1,1,2.3-2.3A2.3,2.3,0,0,1,12.3,11.592Zm0-3.444A1.085,1.085,0,0,0,11.148,9.3,1.085,1.085,0,0,0,12.3,10.444,1.085,1.085,0,0,0,13.444,9.3,1.085,1.085,0,0,0,12.3,8.148Z" transform="translate(-10 -7)" fill="#141c5c"/></g><g transform="translate(9.184 13.776)"><path d="M16.61,16.592a.542.542,0,0,1-.574-.574V14.87a1.766,1.766,0,0,0-1.722-1.722H10.87A1.766,1.766,0,0,0,9.148,14.87v1.148a.574.574,0,1,1-1.148,0V14.87A2.842,2.842,0,0,1,10.87,12h3.444a2.842,2.842,0,0,1,2.87,2.87v1.148A.542.542,0,0,1,16.61,16.592Z" transform="translate(-8 -12)" fill="#141c5c"/></g></svg>