<svg xmlns="http://www.w3.org/2000/svg" width="11.088" height="11.088" viewBox="0 0 11.088 11.088"><path d="M15.652,15.163h0V11.1c0-1.989-.428-3.522-2.754-3.522a2.414,2.414,0,0,0-2.175,1.2h-.032V7.76H8.489v7.4h2.3V11.5c0-.965.183-1.9,1.378-1.9,1.178,0,1.2,1.1,1.2,1.96v3.6Z" transform="translate(-4.567 -4.075)" fill="#141c5c"/><path d="M.4,7.977h2.3v7.4H.4Z" transform="translate(-0.213 -4.292)" fill="#141c5c"/><path d="M1.331,0A1.338,1.338,0,1,0,2.663,1.331,1.332,1.332,0,0,0,1.331,0Z" fill="#141c5c"/></svg>