<svg xmlns="http://www.w3.org/2000/svg" xmlns:xlink="http://www.w3.org/1999/xlink" width="56.629" height="31.688" viewBox="0 0 56.629 31.688"><defs><clipPath id="a"><rect width="7.881" height="10.152"/></clipPath><clipPath id="b"><rect width="12.397" height="9.143"/></clipPath><clipPath id="c"><rect width="14.109" height="7.543"/></clipPath><clipPath id="d"><rect width="12.705" height="11.734"/></clipPath><clipPath id="e"><rect width="15.479" height="11.289"/></clipPath></defs><g transform="translate(0 0)"><g transform="translate(0 0)"><path d="M13.691,42.165l-.034,5.3a5.233,5.233,0,0,0-3-.936,4.732,4.732,0,0,0-4.825,5.094L5.8,56.128c.073,3.249-1.693,4.655-5.8,4.724q.046-5.6.08-9.693c.049-7.7,7.6-11.286,13.611-8.994" transform="translate(0 -34.172)" fill="#fff"/><g transform="translate(5.809 7.717)"><g clip-path="url(#a)"><path d="M40.849,44.07l-.034,5.3a5.233,5.233,0,0,0-3-.936,6.338,6.338,0,0,0-2.046.414,4.914,4.914,0,0,0-2.779,4.68l0,.42c-.3-8.453,3.243-11.078,7.864-9.876" transform="translate(-32.968 -43.794)" fill="#cecece"/></g></g><path d="M89.059,43.317q-.739-1.626-3.854-.6l-.9.417c-1.71.791-2.641,1.84-2.65,3.176a1.873,1.873,0,0,0,.232.735l1.473,3.238c-.048-1.655.424-2.421,3.371-3.648q2.355-1.088,2.53-2.3a2.049,2.049,0,0,0-.2-1.021m.8,13.5q-5.5,2.545-8.685-.158a9.291,9.291,0,0,1-1.849-2.617l-2.377-5.228q-1.638-3.6,1.939-7.456a13.984,13.984,0,0,1,3.53-2.369q6.615-3.059,10.114.149A6.345,6.345,0,0,1,93.64,40.77l.224.493a4.83,4.83,0,0,1-1.279,5.951,17.375,17.375,0,0,1-4.043,2.508l-4.41,2.04a.085.085,0,0,0-.045.126q1.142,2.513,4.823.814l.514-.238a34.236,34.236,0,0,0,5.836-3.371,9.73,9.73,0,0,0,1.267,3.934,49.784,49.784,0,0,1-6.665,3.794" transform="translate(-62.967 -30.891)" fill="#fff"/><g transform="translate(13.468 9.902)"><g clip-path="url(#b)"><path d="M77.457,65.341l-.509-1.118a5.354,5.354,0,0,1-.334-3.664c3.2-4.947,10.7-5.688,12.217-2.208q-.909-1.126-3.629-.226l-.9.417c-1.71.791-2.6,1.846-2.65,3.176a3.1,3.1,0,0,0,.232.735l.38.836Z" transform="translate(-76.434 -56.198)" fill="#cecece"/></g></g><g transform="translate(21.12 17.117)"><g clip-path="url(#c)"><path d="M119.854,101.018q1.142,2.513,4.823.814l.514-.237q5.462-2.631,7.011-4.456l1.762,3.872c-6.862,4.7-11.892,5.078-14.109.007" transform="translate(-119.854 -97.139)" fill="#cecece"/></g></g><path d="M192.751,16.793a5.108,5.108,0,0,0,2.406,4.7,4.961,4.961,0,0,0,2.28.56h.386a4.53,4.53,0,0,0,4.252-2.89,6.9,6.9,0,0,0,.407-2.184l0-.28a4.866,4.866,0,0,0-2.739-4.7,6.326,6.326,0,0,0-2.048-.414,4.649,4.649,0,0,0-4.7,3.432,9.872,9.872,0,0,0-.244,1.77M208.321.009l-.108,17.064a9.3,9.3,0,0,1-4.05,7.877,11.668,11.668,0,0,1-6.661,1.808q-5.852,0-8.828-4.051a10,10,0,0,1-1.713-5.914,9.511,9.511,0,0,1,4.713-8.469,12.418,12.418,0,0,1,5.9-1.394h.193a8.3,8.3,0,0,1,4.42,1.172l.022-3.569c.245-3.577,2.667-4.641,6.113-4.524" transform="translate(-154.015 0)" fill="#fff"/><g transform="translate(36.127 7.636)"><g clip-path="url(#d)"><path d="M205.02,45.168a11.773,11.773,0,0,1,1.531-1.143c7.265-2.82,13.536,3.468,10.3,11.046q.052-.1.1-.2a6.908,6.908,0,0,0,.407-2.184l0-.28a4.865,4.865,0,0,0-2.739-4.7,6.324,6.324,0,0,0-2.048-.414,4.5,4.5,0,0,0-4.156,2.257L207,48.617Z" transform="translate(-205.02 -43.337)" fill="#cecece"/></g></g><g transform="translate(38.724 14.497)"><g clip-path="url(#e)"><path d="M235.239,83.86l-.006.987a9.3,9.3,0,0,1-4.05,7.877,9.586,9.586,0,0,1-1.291.73c-6.4.863-10.424-3.608-10.115-8.562a5.025,5.025,0,0,0,2.4,4.38,4.964,4.964,0,0,0,2.281.561h.386a4.53,4.53,0,0,0,4.252-2.89,6.909,6.909,0,0,0,.407-2.184l0-.28a5.8,5.8,0,0,0-.381-2.207Z" transform="translate(-219.76 -82.272)" fill="#cecece"/></g></g><path d="M195.48,161.165a.683.683,0,0,1-.474-.147.59.59,0,0,1-.139-.434V158.1l.36-.064v2.489a.633.633,0,0,0,.015.152.211.211,0,0,0,.051.1.2.2,0,0,0,.093.053.865.865,0,0,0,.143.03ZM193.649,159a1.007,1.007,0,0,1,.366.057.59.59,0,0,1,.241.163.632.632,0,0,1,.131.25,1.291,1.291,0,0,1,.038.321v1.3l-.13.021c-.055.01-.118.019-.188.027s-.145.015-.227.022-.162.01-.242.01a1.351,1.351,0,0,1-.315-.035.684.684,0,0,1-.248-.115.511.511,0,0,1-.163-.2.737.737,0,0,1-.059-.308.6.6,0,0,1,.069-.294.554.554,0,0,1,.184-.2.845.845,0,0,1,.272-.111,1.476,1.476,0,0,1,.327-.036.949.949,0,0,1,.112.006.966.966,0,0,1,.111.016l.092.017.054.012v-.1a.874.874,0,0,0-.019-.181.436.436,0,0,0-.07-.16.358.358,0,0,0-.138-.111.53.53,0,0,0-.227-.042,1.674,1.674,0,0,0-.312.026,1.127,1.127,0,0,0-.2.054l-.042-.307a1.134,1.134,0,0,1,.232-.062,1.958,1.958,0,0,1,.353-.029m.031,1.855c.084,0,.161,0,.227-.006a.844.844,0,0,0,.164-.022v-.617a.461.461,0,0,0-.126-.034,1.407,1.407,0,0,0-.212-.013,1.313,1.313,0,0,0-.173.012.489.489,0,0,0-.166.05.357.357,0,0,0-.127.1.285.285,0,0,0-.05.173.3.3,0,0,0,.124.277.626.626,0,0,0,.338.078m-1.757-1.805h.764v.312h-.764v.956a1.173,1.173,0,0,0,.023.257.389.389,0,0,0,.069.158.26.26,0,0,0,.117.082.5.5,0,0,0,.163.023.736.736,0,0,0,.262-.038c.066-.024.112-.042.137-.053l.07.307a1.222,1.222,0,0,1-.19.07,1.046,1.046,0,0,1-.311.042.927.927,0,0,1-.34-.054.513.513,0,0,1-.216-.161.667.667,0,0,1-.115-.266,1.81,1.81,0,0,1-.032-.365v-1.848l.361-.064v.641Zm-.993-.374a.229.229,0,0,1-.165-.066.268.268,0,0,1,0-.355.239.239,0,0,1,.33,0,.265.265,0,0,1,0,.355.228.228,0,0,1-.165.066m.183,2.446h-.361v-2.072h.361Zm-1.194-1.744a1.029,1.029,0,0,0-.146-.03,1.477,1.477,0,0,0-.246-.015.541.541,0,0,0-.448.2.807.807,0,0,0-.157.518.913.913,0,0,0,.045.306.608.608,0,0,0,.12.211.473.473,0,0,0,.175.124.568.568,0,0,0,.2.039.8.8,0,0,0,.264-.042.64.64,0,0,0,.19-.1v-1.211Zm0,1.538a.933.933,0,0,1-.18.08.867.867,0,0,1-.312.051.973.973,0,0,1-.344-.06.728.728,0,0,1-.282-.186.9.9,0,0,1-.19-.312,1.277,1.277,0,0,1-.07-.446,1.239,1.239,0,0,1,.066-.416.932.932,0,0,1,.192-.327.876.876,0,0,1,.309-.214,1.04,1.04,0,0,1,.411-.078,2.255,2.255,0,0,1,.441.038c.125.025.231.048.316.07v1.848a.887.887,0,0,1-.241.694,1.066,1.066,0,0,1-.729.215,2.069,2.069,0,0,1-.652-.108l.065-.322a1.721,1.721,0,0,0,.266.077,1.516,1.516,0,0,0,.327.034.667.667,0,0,0,.464-.132.543.543,0,0,0,.141-.418v-.087ZM188,158.679a.229.229,0,0,1-.165-.066.266.266,0,0,1,0-.355.239.239,0,0,1,.33,0,.267.267,0,0,1,0,.355.228.228,0,0,1-.165.066m.182,2.446h-.361v-2.072h.361Zm-1.195-3.027.361-.064v3.032a3.111,3.111,0,0,1-.318.072,2.565,2.565,0,0,1-.446.035,1.117,1.117,0,0,1-.419-.075.892.892,0,0,1-.318-.215.946.946,0,0,1-.2-.34,1.333,1.333,0,0,1-.072-.453,1.482,1.482,0,0,1,.06-.438.982.982,0,0,1,.176-.343.805.805,0,0,1,.285-.223.889.889,0,0,1,.387-.08.926.926,0,0,1,.309.047,1,1,0,0,1,.2.092Zm0,1.394a.679.679,0,0,0-.19-.107.7.7,0,0,0-.272-.052.564.564,0,0,0-.266.057.5.5,0,0,0-.181.159.675.675,0,0,0-.1.241,1.37,1.37,0,0,0-.032.3.818.818,0,0,0,.175.561.592.592,0,0,0,.465.2,1.926,1.926,0,0,0,.246-.012,1.019,1.019,0,0,0,.153-.031Zm-3.425-.49a1.013,1.013,0,0,1,.367.057.589.589,0,0,1,.24.163.615.615,0,0,1,.13.25,1.25,1.25,0,0,1,.039.321v1.3l-.13.021c-.055.01-.118.019-.187.027s-.147.015-.228.022-.163.01-.242.01a1.347,1.347,0,0,1-.314-.035.672.672,0,0,1-.248-.115.511.511,0,0,1-.163-.2.737.737,0,0,1-.058-.308.607.607,0,0,1,.068-.294.56.56,0,0,1,.184-.2.84.84,0,0,1,.272-.111,1.472,1.472,0,0,1,.326-.036.966.966,0,0,1,.113.006,1,1,0,0,1,.111.016l.091.017.055.012v-.1a.862.862,0,0,0-.019-.181.415.415,0,0,0-.07-.16.356.356,0,0,0-.137-.111.531.531,0,0,0-.227-.042,1.674,1.674,0,0,0-.312.026,1.127,1.127,0,0,0-.2.054l-.043-.307a1.134,1.134,0,0,1,.234-.062,1.94,1.94,0,0,1,.352-.029m.032,1.855c.085,0,.161,0,.226-.006a.854.854,0,0,0,.165-.022v-.617a.459.459,0,0,0-.126-.034,1.424,1.424,0,0,0-.211-.013,1.307,1.307,0,0,0-.173.012.49.49,0,0,0-.167.05.358.358,0,0,0-.126.1.28.28,0,0,0-.05.173.3.3,0,0,0,.124.277.627.627,0,0,0,.338.078m-1.338-2.179a.23.23,0,0,1-.166-.066.267.267,0,0,1,0-.355.233.233,0,0,1,.166-.066.23.23,0,0,1,.164.066.266.266,0,0,1,0,.355.227.227,0,0,1-.164.066m.182,2.446h-.361v-2.072h.361Zm-1.139.047a1.072,1.072,0,0,1-.429-.078.871.871,0,0,1-.311-.223.933.933,0,0,1-.188-.341,1.422,1.422,0,0,1-.062-.435,1.333,1.333,0,0,1,.068-.439,1.042,1.042,0,0,1,.191-.345.878.878,0,0,1,.305-.227.968.968,0,0,1,.4-.081,1.627,1.627,0,0,1,.272.023,1.184,1.184,0,0,1,.26.077l-.081.315a.859.859,0,0,0-.188-.065,1.025,1.025,0,0,0-.227-.023.566.566,0,0,0-.463.195.874.874,0,0,0-.161.57,1.182,1.182,0,0,0,.037.306.64.64,0,0,0,.116.239.53.53,0,0,0,.2.153.772.772,0,0,0,.3.052,1.127,1.127,0,0,0,.259-.027.89.89,0,0,0,.183-.06l.05.312a.389.389,0,0,1-.089.037c-.039.012-.083.022-.132.032s-.1.016-.157.024a1.462,1.462,0,0,1-.161.008m-2.956-2.059c.083-.02.193-.045.329-.069a2.842,2.842,0,0,1,.473-.035,1,1,0,0,1,.4.07.637.637,0,0,1,.254.2.763.763,0,0,1,.134.3,1.843,1.843,0,0,1,.039.387v1.163h-.361v-1.084a1.807,1.807,0,0,0-.025-.327.556.556,0,0,0-.083-.218.326.326,0,0,0-.156-.122.656.656,0,0,0-.241-.039c-.038,0-.078,0-.12,0s-.081.006-.119.011-.071.008-.1.014l-.064.012v1.749h-.361v-2.012Zm-1.221-1.051.528.57-.152.175-.377-.351-.377.351-.151-.175Zm.473,1.828a.624.624,0,0,0-.122-.412.418.418,0,0,0-.347-.162.471.471,0,0,0-.219.05.514.514,0,0,0-.161.13.583.583,0,0,0-.1.182.974.974,0,0,0-.048.212h1Zm-1.385.2a1.327,1.327,0,0,1,.078-.48.994.994,0,0,1,.2-.342.845.845,0,0,1,.3-.2.922.922,0,0,1,.341-.066.764.764,0,0,1,.625.261,1.219,1.219,0,0,1,.217.794v.062a.559.559,0,0,1,0,.07H176.59a.779.779,0,0,0,.182.491.66.66,0,0,0,.5.165,1.3,1.3,0,0,0,.32-.033,1.04,1.04,0,0,0,.2-.065l.051.311a1.125,1.125,0,0,1-.231.076,1.684,1.684,0,0,1-.374.038,1.148,1.148,0,0,1-.456-.081.864.864,0,0,1-.317-.224.936.936,0,0,1-.183-.341,1.472,1.472,0,0,1-.06-.432m-.721-.713a1.012,1.012,0,0,0-.145-.03,1.475,1.475,0,0,0-.246-.015.542.542,0,0,0-.448.2.8.8,0,0,0-.157.518.941.941,0,0,0,.044.306.619.619,0,0,0,.12.211.483.483,0,0,0,.175.124.569.569,0,0,0,.2.039.8.8,0,0,0,.264-.042.62.62,0,0,0,.19-.1Zm0,1.538a.912.912,0,0,1-.181.08.866.866,0,0,1-.312.051.975.975,0,0,1-.344-.06.729.729,0,0,1-.281-.186.9.9,0,0,1-.19-.312,1.277,1.277,0,0,1-.07-.446,1.261,1.261,0,0,1,.066-.416.929.929,0,0,1,.193-.327.873.873,0,0,1,.308-.214,1.041,1.041,0,0,1,.411-.078,2.24,2.24,0,0,1,.44.038c.125.025.232.048.316.07v1.848a.887.887,0,0,1-.241.694,1.065,1.065,0,0,1-.729.215,2.067,2.067,0,0,1-.652-.108l.066-.322a1.727,1.727,0,0,0,.266.077,1.523,1.523,0,0,0,.328.034.67.67,0,0,0,.464-.132.545.545,0,0,0,.141-.418v-.087ZM173.006,159a1.01,1.01,0,0,1,.367.057.587.587,0,0,1,.241.163.616.616,0,0,1,.129.25,1.234,1.234,0,0,1,.039.321v1.3l-.13.021c-.055.01-.117.019-.188.027s-.145.015-.226.022-.162.01-.243.01a1.343,1.343,0,0,1-.314-.035.672.672,0,0,1-.248-.115.511.511,0,0,1-.163-.2.74.74,0,0,1-.059-.308.6.6,0,0,1,.069-.294.552.552,0,0,1,.184-.2.831.831,0,0,1,.271-.111,1.481,1.481,0,0,1,.327-.036.94.94,0,0,1,.112.006,1.006,1.006,0,0,1,.112.016l.091.017.054.012v-.1a.874.874,0,0,0-.019-.181.432.432,0,0,0-.07-.16.354.354,0,0,0-.138-.111.525.525,0,0,0-.227-.042,1.667,1.667,0,0,0-.312.026,1.109,1.109,0,0,0-.2.054l-.043-.307a1.131,1.131,0,0,1,.233-.062,1.947,1.947,0,0,1,.352-.029m.031,1.855c.085,0,.161,0,.227-.006a.833.833,0,0,0,.165-.022v-.617a.458.458,0,0,0-.126-.034,1.412,1.412,0,0,0-.212-.013,1.305,1.305,0,0,0-.172.012.5.5,0,0,0-.167.05.356.356,0,0,0-.126.1.281.281,0,0,0-.051.173.3.3,0,0,0,.124.277.628.628,0,0,0,.338.078" transform="translate(-141.865 -130.187)" fill="#fff"/><path d="M303,123.353h.193a.99.99,0,0,0,.382-.065.263.263,0,0,0,.153-.27.278.278,0,0,0-.145-.269.755.755,0,0,0-.349-.075c-.037,0-.076,0-.117,0s-.08,0-.117.008v.669Zm.855,1.087a3.783,3.783,0,0,0-.262-.447,4.1,4.1,0,0,0-.252-.337H303v.783h-.362v-2.028a2.527,2.527,0,0,1,.291-.047c.1-.01.195-.015.28-.015a1.123,1.123,0,0,1,.666.167.588.588,0,0,1,.23.508.58.58,0,0,1-.1.337.643.643,0,0,1-.282.222c.033.042.072.094.117.156s.09.133.137.209.1.157.143.24.09.167.128.251h-.392Zm.864-1.04a1.835,1.835,0,0,0-.1-.629,1.494,1.494,0,0,0-.282-.49,1.238,1.238,0,0,0-.433-.313,1.44,1.44,0,0,0-1.1,0,1.224,1.224,0,0,0-.433.313,1.46,1.46,0,0,0-.283.49,2,2,0,0,0,0,1.258,1.459,1.459,0,0,0,.283.488,1.2,1.2,0,0,0,.433.314,1.445,1.445,0,0,0,1.1,0,1.218,1.218,0,0,0,.433-.314,1.49,1.49,0,0,0,.282-.488,1.846,1.846,0,0,0,.1-.629m.372,0a2.11,2.11,0,0,1-.143.8,1.775,1.775,0,0,1-.381.6,1.63,1.63,0,0,1-.555.372,1.785,1.785,0,0,1-1.324,0,1.63,1.63,0,0,1-.555-.372,1.791,1.791,0,0,1-.382-.6,2.31,2.31,0,0,1,0-1.594,1.809,1.809,0,0,1,.382-.6,1.634,1.634,0,0,1,.555-.371,1.772,1.772,0,0,1,1.324,0,1.634,1.634,0,0,1,.555.371,1.793,1.793,0,0,1,.381.6,2.119,2.119,0,0,1,.143.8" transform="translate(-248.465 -100.097)" fill="#fff"/><path d="M182.355,3.589h-1.973a.684.684,0,0,0-.673.691v3.46a.684.684,0,0,1-.673.691h-3.2a.684.684,0,0,1-.674-.691V4.456a.685.685,0,0,1,.674-.693h3.319a.683.683,0,0,0,.673-.691V1A.685.685,0,0,1,180.5.305h1.852a.684.684,0,0,1,.673.691V2.9a.684.684,0,0,1-.673.691" transform="translate(-144.297 -0.251)" fill="#fff" fill-rule="evenodd"/><path d="M208.979,27.05h-.8a.3.3,0,0,1-.292-.3v-.825a.3.3,0,0,1,.292-.3h.8a.3.3,0,0,1,.292.3v.825a.3.3,0,0,1-.292.3" transform="translate(-171.252 -21.11)" fill="#fff" fill-rule="evenodd"/><path d="M186.563,5.13h-1.37a.507.507,0,0,1-.5-.512V3.213a.506.506,0,0,1,.5-.511h1.37a.505.505,0,0,1,.5.511V4.619a.506.506,0,0,1-.5.512" transform="translate(-152.151 -2.226)" fill="#fff" fill-rule="evenodd"/></g></g></svg>